<svg preserveAspectRatio="none" width="100%" height="100%" overflow="visible" style="display: block;" viewBox="0 0 30 30" fill="none" xmlns="http://www.w3.org/2000/svg">
<g id="typcn:th-list">
<path id="Vector" d="M23.75 21.25H15C13.6212 21.25 12.5 22.3712 12.5 23.75C12.5 25.1288 13.6212 26.25 15 26.25H23.75C25.1288 26.25 26.25 25.1288 26.25 23.75C26.25 22.3712 25.1288 21.25 23.75 21.25ZM23.75 12.5H15C13.6212 12.5 12.5 13.6212 12.5 15C12.5 16.3788 13.6212 17.5 15 17.5H23.75C25.1288 17.5 26.25 16.3788 26.25 15C26.25 13.6212 25.1288 12.5 23.75 12.5ZM23.75 3.75H15C13.6212 3.75 12.5 4.87125 12.5 6.25C12.5 7.62875 13.6212 8.75 15 8.75H23.75C25.1288 8.75 26.25 7.62875 26.25 6.25C26.25 4.87125 25.1288 3.75 23.75 3.75Z" fill="var(--fill-0, black)"/>
<path id="Vector_2" d="M6.25 26.875C7.97589 26.875 9.375 25.4759 9.375 23.75C9.375 22.0241 7.97589 20.625 6.25 20.625C4.52411 20.625 3.125 22.0241 3.125 23.75C3.125 25.4759 4.52411 26.875 6.25 26.875Z" fill="var(--fill-0, black)"/>
<path id="Vector_3" d="M6.25 18.125C7.97589 18.125 9.375 16.7259 9.375 15C9.375 13.2741 7.97589 11.875 6.25 11.875C4.52411 11.875 3.125 13.2741 3.125 15C3.125 16.7259 4.52411 18.125 6.25 18.125Z" fill="var(--fill-0, black)"/>
<path id="Vector_4" d="M6.25 9.375C7.97589 9.375 9.375 7.97589 9.375 6.25C9.375 4.52411 7.97589 3.125 6.25 3.125C4.52411 3.125 3.125 4.52411 3.125 6.25C3.125 7.97589 4.52411 9.375 6.25 9.375Z" fill="var(--fill-0, black)"/>
</g>
</svg>
