<svg preserveAspectRatio="none" width="100%" height="100%" overflow="visible" style="display: block;" viewBox="0 0 10 10" fill="none" xmlns="http://www.w3.org/2000/svg">
<g id="eva:arrow-ios-downward-fill">
<path id="Vector" d="M5 6.66667C4.90265 6.66686 4.8083 6.63295 4.73333 6.57083L2.23333 4.4875C2.14824 4.41678 2.09473 4.31515 2.08457 4.20497C2.07442 4.09479 2.10844 3.98509 2.17917 3.9C2.24989 3.81491 2.35152 3.7614 2.4617 3.75124C2.57188 3.74108 2.68158 3.77511 2.76667 3.84583L5 5.7125L7.23333 3.9125C7.27595 3.87789 7.32499 3.85204 7.37764 3.83645C7.43028 3.82085 7.48548 3.81581 7.54008 3.82162C7.59467 3.82743 7.64758 3.84397 7.69576 3.87029C7.74394 3.89661 7.78645 3.9322 7.82083 3.975C7.85899 4.01784 7.88789 4.0681 7.90572 4.12263C7.92355 4.17716 7.92993 4.23479 7.92445 4.2919C7.91898 4.34901 7.90177 4.40437 7.8739 4.45452C7.84603 4.50467 7.8081 4.54852 7.7625 4.58333L5.2625 6.59583C5.18538 6.64813 5.09296 6.67307 5 6.66667Z" fill="var(--fill-0, black)"/>
</g>
</svg>
