<svg preserveAspectRatio="none" width="100%" height="100%" overflow="visible" style="display: block;" viewBox="0 0 30 30" fill="none" xmlns="http://www.w3.org/2000/svg">
<g id="solar:map-bold">
<path id="Vector" d="M3.045 6.43375C2.5 7.05375 2.5 8.11875 2.5 10.2462V21.9887C2.5 23.4962 2.5 24.25 2.89375 24.8175C3.28625 25.385 3.97375 25.6237 5.34875 26.1L6.96625 26.6613C7.8425 26.965 8.51625 27.1987 9.0825 27.3487C9.4525 27.4475 9.79125 27.1575 9.79125 26.775V7.8375C9.78693 7.68569 9.73246 7.53959 9.63635 7.422C9.54025 7.30441 9.40791 7.22195 9.26 7.1875C8.77375 7.06375 8.18875 6.86125 7.3875 6.58375C5.44625 5.91 4.475 5.57375 3.7375 5.915C3.47353 6.03859 3.23781 6.21517 3.045 6.43375ZM15.775 4.35125L13.855 5.6825C13.1612 6.16375 12.6513 6.5175 12.2175 6.76875C12.1157 6.82633 12.0306 6.90937 11.9706 7.00973C11.9105 7.11009 11.8776 7.22433 11.875 7.34125V26.15C11.875 26.6125 12.355 26.9025 12.745 26.6525C13.1638 26.385 13.6438 26.0525 14.225 25.65L16.145 24.3188C16.8388 23.8375 17.3487 23.4838 17.7825 23.2325C17.8843 23.1749 17.9694 23.0919 18.0294 22.9915C18.0895 22.8912 18.1224 22.7769 18.125 22.66V3.85C18.125 3.38625 17.645 3.0975 17.255 3.34625C16.8362 3.615 16.3562 3.9475 15.775 4.35125ZM24.65 3.9L23.0338 3.34C22.1575 3.03625 21.4837 2.8025 20.9175 2.6525C20.5475 2.55375 20.2087 2.84375 20.2087 3.22625V22.1638C20.2131 22.3156 20.2675 22.4617 20.3636 22.5792C20.4598 22.6968 20.5921 22.7793 20.74 22.8137C21.2262 22.9375 21.8113 23.1387 22.6125 23.4175C24.5538 24.0912 25.525 24.4275 26.2625 24.0862C26.5265 23.9627 26.7622 23.7861 26.955 23.5675C27.5 22.9475 27.5 21.8825 27.5 19.755V8.0125C27.5 6.505 27.5 5.75 27.1062 5.18375C26.7137 4.61625 26.0263 4.3775 24.6513 3.90125" fill="var(--fill-0, black)"/>
</g>
</svg>
