<svg width="12" height="17" viewBox="0 0 12 17" fill="none" xmlns="http://www.w3.org/2000/svg">
<mask id="mask0_4_55" style="mask-type:luminance" maskUnits="userSpaceOnUse" x="0" y="-1" width="3" height="18">
<path d="M1.81424 0.36058H2.19372L0.921278 16.1933H0.541794L1.81424 0.36058Z" fill="white" stroke="white"/>
</mask>
<g mask="url(#mask0_4_55)">
<path d="M1.85239 0.616721C1.78162 0.610879 1.7195 0.663177 1.71369 0.733947C1.4985 3.2947 1.18725 5.84593 0.975636 8.40696C0.763992 10.968 0.654496 13.5351 0.447623 16.0966C0.441806 16.1673 0.494156 16.2295 0.564849 16.2353C0.635541 16.2411 0.697739 16.1883 0.703555 16.1176C0.918822 13.5568 1.23111 11.0062 1.4416 8.44505C1.65213 5.88394 1.76264 3.31687 1.96962 0.755427C1.97546 0.684684 1.92316 0.622563 1.85239 0.616721Z" fill="black" stroke="black"/>
</g>
<path d="M4.8964 0.500001C3.90474 0.500409 2.91811 0.597966 1.92647 0.604956C1.85547 0.604956 1.79787 0.662561 1.79787 0.73356C1.79787 0.804559 1.85547 0.862138 1.92647 0.862138C2.91811 0.869154 3.90474 0.966684 4.8964 0.967118C5.88814 0.967526 6.87488 0.869077 7.86654 0.86196C7.93748 0.86196 7.99494 0.804482 7.99494 0.73356C7.99494 0.662612 7.93748 0.60516 7.86654 0.60516C6.87488 0.598017 5.88814 0.499593 4.8964 0.500001Z" fill="black" stroke="black"/>
<path d="M4.59925 15.8532C3.28244 15.8447 1.97153 15.9701 0.655007 15.9783C0.584008 15.9783 0.526428 16.0359 0.526428 16.1069C0.526428 16.1779 0.584008 16.2355 0.655007 16.2355C1.97153 16.2437 3.28244 16.3689 4.59925 16.3604C5.62377 16.3538 6.64214 16.2439 7.66692 16.2352C7.73786 16.2352 7.79526 16.1778 7.79526 16.1069C7.79526 16.036 7.73786 15.9783 7.66692 15.9783C6.64214 15.9697 5.62377 15.8598 4.59925 15.8532Z" fill="black" stroke="black"/>
<path d="M7.85681 0.605221C7.81566 0.608461 7.77694 0.631472 7.75505 0.670097C7.72004 0.73186 7.74158 0.810104 7.80334 0.845132C8.35003 1.15686 8.87212 1.50647 9.31426 1.9582C9.59425 2.24429 9.84031 2.56477 10.0372 2.91359C11.0592 4.7246 10.1993 6.75188 9.07859 8.28739C9.03662 8.34459 9.04887 8.42493 9.10606 8.46689C9.16323 8.50886 9.24357 8.49659 9.28556 8.43942C10.3301 7.02388 11.3932 5.29438 10.7826 3.47484C10.69 3.19888 10.5621 2.93532 10.4043 2.69077C10.2035 2.3795 9.95634 2.10053 9.68464 1.84952C9.1579 1.36291 8.55282 0.972562 7.93008 0.621574C7.90692 0.608435 7.88151 0.603282 7.85681 0.605221Z" fill="black" stroke="black"/>
<mask id="mask1_4_55" style="mask-type:luminance" maskUnits="userSpaceOnUse" x="0" y="-1" width="13" height="18">
<path d="M1.81424 0.36058H11.6808L10.4083 16.1933H0.541794L1.81424 0.36058Z" fill="white" stroke="white"/>
</mask>
<g mask="url(#mask1_4_55)">
<path d="M1.82668 0.605219C1.79392 0.608485 1.76249 0.624225 1.74002 0.651727C1.69509 0.706679 1.70318 0.787882 1.75813 0.832833C3.45457 2.22304 5.07002 3.69248 6.54158 5.32111C7.51301 6.39619 8.44234 7.52957 9.16386 8.79071C10.0406 10.3231 10.6702 12.2035 9.78259 13.8762C9.60746 14.2063 9.38581 14.5091 9.1335 14.7842C8.6873 15.2708 8.15677 15.6496 7.59941 15.9972C7.53918 16.0347 7.52081 16.1142 7.55829 16.1744C7.59577 16.2346 7.67526 16.253 7.73549 16.2155C8.40017 15.8028 9.02842 15.3421 9.53686 14.7411C9.78823 14.444 10.0064 14.1161 10.1752 13.7651C11.0057 12.0373 10.4565 10.1465 9.56671 8.56261C8.74823 7.10554 7.64373 5.81639 6.4657 4.63873C5.03736 3.21082 3.4848 1.90935 1.92115 0.633614C1.89367 0.611138 1.85941 0.601928 1.82668 0.605219Z" fill="black" stroke="black"/>
</g>
<mask id="mask2_4_55" style="mask-type:luminance" maskUnits="userSpaceOnUse" x="0" y="-1" width="10" height="18">
<path d="M1.69287 1.84592C1.7603 1.007 2.46077 0.360586 3.30238 0.360586H7.27274C8.21552 0.360586 8.95776 1.16489 8.88224 2.10463L7.86933 14.7079C7.8019 15.5468 7.10143 16.1933 6.25983 16.1933H2.28946C1.34668 16.1933 0.604423 15.389 0.679963 14.4492L1.69287 1.84592Z" fill="white" stroke="white"/>
</mask>
<g mask="url(#mask2_4_55)">
<path d="M1.95051 0.623079C1.91788 0.618946 1.88323 0.627237 1.85517 0.648999C1.79907 0.692496 1.7892 0.772806 1.8327 0.828906C3.1172 2.48997 4.30773 4.20766 5.34465 6.035C6.08629 7.34199 6.77947 8.70147 7.20207 10.1493C7.62548 11.6 7.79746 13.3252 6.76008 14.5668C6.54458 14.8247 6.29138 15.0479 6.01545 15.239C5.52565 15.5783 4.98062 15.7985 4.41812 15.9846C4.35076 16.0068 4.31426 16.0796 4.33648 16.147C4.3587 16.2143 4.43143 16.2508 4.49881 16.2286C5.08484 16.0361 5.65254 15.8075 6.1675 15.4625C6.46675 15.262 6.74291 15.0278 6.98205 14.7579C8.24057 13.3376 8.06711 11.3522 7.53553 9.66428C7.05591 8.14139 6.28847 6.71376 5.43411 5.37104C4.39641 3.74016 3.22073 2.19679 2.03559 0.671474C2.01385 0.643411 1.98316 0.627212 1.95051 0.623079Z" fill="black" stroke="black"/>
</g>
<path d="M4.22887 8.317C4.1581 8.31132 4.09613 8.36412 4.09044 8.43489C4.00311 9.43411 3.82573 10.4213 3.74496 11.421C3.66419 12.4208 3.68251 13.4234 3.60929 14.4238C3.6036 14.4945 3.65628 14.5565 3.72698 14.5622C3.7977 14.5679 3.85954 14.5152 3.86522 14.4445C3.95268 13.4453 4.13075 12.4582 4.2107 11.4584C4.29063 10.4585 4.27341 9.45576 4.34678 8.45543C4.35247 8.38464 4.29964 8.32269 4.22887 8.317Z" fill="black" stroke="black"/>
<path d="M4.2261 8.3168C4.20138 8.31535 4.17597 8.32109 4.15309 8.33466C4.09201 8.37091 4.07189 8.44969 4.10814 8.51074C4.28547 8.81198 4.4554 9.11657 4.60084 9.43475C4.72853 9.71405 4.83688 10.0014 4.93122 10.2936C5.30193 11.4416 5.55041 12.8521 4.55944 13.7714C4.30394 14.0084 4.00137 14.1752 3.68528 14.3166C3.62046 14.3453 3.59117 14.4211 3.61992 14.486C3.6487 14.5508 3.7247 14.5801 3.78952 14.5513C4.16949 14.3841 4.53324 14.1841 4.84897 13.9118C5.03954 13.7474 5.21021 13.5599 5.34698 13.3482C6.21476 12.0053 5.44994 10.3559 4.7622 9.12557C4.62189 8.87454 4.47678 8.62641 4.32917 8.37961C4.30652 8.34147 4.2673 8.31923 4.2261 8.3168Z" fill="black" stroke="black"/>
<path d="M4.84452 0.604995C4.79449 0.602418 4.74535 0.629383 4.72211 0.677294C4.69114 0.741201 4.71785 0.818195 4.78173 0.849192C5.16525 1.03652 5.54379 1.23179 5.90751 1.45573C6.16696 1.61546 6.41772 1.78815 6.66097 1.97157C7.9141 2.9164 9.22896 4.25782 8.81904 5.9723C8.71878 6.39169 8.52535 6.77288 8.30044 7.1378C8.2631 7.19811 8.28159 7.27719 8.3419 7.31454C8.40218 7.35192 8.48148 7.33339 8.51885 7.27311C8.78685 6.84296 9.01538 6.39069 9.14462 5.89832C9.22233 5.60225 9.26389 5.29665 9.25583 4.99028C9.20516 3.0639 7.35055 1.88313 5.83309 1.08744C5.52297 0.924834 5.20949 0.76957 4.89399 0.6177C4.87802 0.609944 4.8612 0.605862 4.84452 0.604995Z" fill="black" stroke="black"/>
<path d="M5.63103 2.07021C5.56587 2.07156 5.51107 2.12205 5.50574 2.1884C5.47676 2.33193 5.44793 2.47551 5.41882 2.61901C5.38972 2.76254 5.34303 2.90359 5.33117 3.04957C5.3193 3.1955 5.34226 3.34221 5.34808 3.48852C5.35392 3.63486 5.3601 3.78119 5.36609 3.92752C5.3604 3.99824 5.41316 4.06019 5.48385 4.06585C5.55455 4.07154 5.61644 4.01881 5.62213 3.94809C5.65141 3.80458 5.68091 3.66116 5.71004 3.5176C5.73915 3.3741 5.7853 3.23297 5.79688 3.087C5.80849 2.94099 5.78489 2.79433 5.77907 2.64799C5.77328 2.50168 5.7677 2.35535 5.76203 2.20904C5.76772 2.13827 5.71496 2.07628 5.64419 2.07059C5.63978 2.07023 5.63537 2.0701 5.63103 2.07021Z" fill="black" stroke="black"/>
<path d="M5.62319 2.07067C5.59855 2.07312 5.57444 2.08271 5.55395 2.09973C5.49933 2.14508 5.49173 2.22614 5.53709 2.28078C5.66679 2.44097 5.79221 2.60067 5.89981 2.77696C6.02283 2.97847 6.12605 3.19254 6.23659 3.40099C6.51472 3.92541 6.92974 4.58779 6.63348 5.18114C6.60138 5.24441 6.62664 5.32168 6.68991 5.35375C6.75315 5.38585 6.83053 5.36059 6.86262 5.29735C7.22236 4.59769 7.04363 3.80081 6.62347 3.16935C6.3703 2.78882 6.03051 2.46378 5.73491 2.11649C5.70656 2.08235 5.66427 2.06661 5.62319 2.07067Z" fill="black" stroke="black"/>
</svg>